{
 "cells": [
  {
   "cell_type": "code",
   "execution_count": 35,
   "metadata": {},
   "outputs": [
    {
     "name": "stdout",
     "output_type": "stream",
     "text": [
      "ffconcat version 1.0\n",
      "file  IMG/01.jpg\n",
      "duration 18.070375\n",
      "file  IMG/02.jpg\n",
      "duration 51.280875\n",
      "file  IMG/03.jpg\n",
      "duration 56.320500\n"
     ]
    },
    {
     "name": "stderr",
     "output_type": "stream",
     "text": [
      "ffmpeg version 3.3.3 Copyright (c) 2000-2017 the FFmpeg developers\n",
      "  built with gcc 4.8 (Ubuntu 4.8.4-2ubuntu1~14.04.3)\n",
      "  configuration: --extra-libs=-ldl --prefix=/opt/ffmpeg --mandir=/usr/share/man --enable-avresample --disable-debug --enable-nonfree --enable-gpl --enable-version3 --enable-libopencore-amrnb --enable-libopencore-amrwb --disable-decoder=amrnb --disable-decoder=amrwb --enable-libpulse --enable-libfreetype --enable-gnutls --disable-ffserver --enable-libx264 --enable-libx265 --enable-libfdk-aac --enable-libvorbis --enable-libtheora --enable-libmp3lame --enable-libopus --enable-libvpx --enable-libspeex --enable-libass --enable-avisynth --enable-libsoxr --enable-libxvid --enable-libvidstab --enable-libwavpack --enable-nvenc --enable-libzimg\n",
      "  libavutil      55. 58.100 / 55. 58.100\n",
      "  libavcodec     57. 89.100 / 57. 89.100\n",
      "  libavformat    57. 71.100 / 57. 71.100\n",
      "  libavdevice    57.  6.100 / 57.  6.100\n",
      "  libavfilter     6. 82.100 /  6. 82.100\n",
      "  libavresample   3.  5.  0 /  3.  5.  0\n",
      "  libswscale      4.  6.100 /  4.  6.100\n",
      "  libswresample   2.  7.100 /  2.  7.100\n",
      "  libpostproc    54.  5.100 / 54.  5.100\n",
      "Input #0, mov,mp4,m4a,3gp,3g2,mj2, from 'Video1.mp4':\n",
      "  Metadata:\n",
      "    major_brand     : isom\n",
      "    minor_version   : 512\n",
      "    compatible_brands: isomiso2avc1mp41\n",
      "    encoder         : Lavf57.71.100\n",
      "  Duration: 00:01:27.40, start: 0.000000, bitrate: 103 kb/s\n",
      "    Stream #0:0(und): Video: h264 (High) (avc1 / 0x31637661), yuvj420p(pc), 640x360 [SAR 1:1 DAR 16:9], 101 kb/s, 25 fps, 25 tbr, 12800 tbn, 50 tbc (default)\n",
      "    Metadata:\n",
      "      handler_name    : VideoHandler\n",
      "Guessed Channel Layout for Input Stream #1.0 : mono\n",
      "Input #1, wav, from 'Audio/long.wav':\n",
      "  Duration: 00:02:05.67, bitrate: 256 kb/s\n",
      "    Stream #1:0: Audio: pcm_s16le ([1][0][0][0] / 0x0001), 16000 Hz, mono, s16, 256 kb/s\n",
      "Stream mapping:\n",
      "  Stream #0:0 -> #0:0 (h264 (native) -> h264 (libx264))\n",
      "  Stream #1:0 -> #0:1 (pcm_s16le (native) -> aac (native))\n",
      "Press [q] to stop, [?] for help\n",
      "No pixel format specified, yuvj420p for H.264 encoding chosen.\n",
      "Use -pix_fmt yuv420p for compatibility with outdated media players.\n",
      "[libx264 @ 0x3c8ade0] using SAR=1/1\n",
      "[libx264 @ 0x3c8ade0] using cpu capabilities: MMX2 SSE2Fast SSSE3 SSE4.2\n",
      "[libx264 @ 0x3c8ade0] profile High, level 3.0\n",
      "[libx264 @ 0x3c8ade0] 264 - core 148 r2795 aaa9aa8 - H.264/MPEG-4 AVC codec - Copyleft 2003-2017 - http://www.videolan.org/x264.html - options: cabac=1 ref=3 deblock=1:0:0 analyse=0x3:0x113 me=hex subme=7 psy=1 psy_rd=1.00:0.00 mixed_ref=1 me_range=16 chroma_me=1 trellis=1 8x8dct=1 cqm=0 deadzone=21,11 fast_pskip=1 chroma_qp_offset=-2 threads=3 lookahead_threads=1 sliced_threads=0 nr=0 decimate=1 interlaced=0 bluray_compat=0 constrained_intra=0 bframes=3 b_pyramid=2 b_adapt=1 b_bias=0 direct=1 weightb=1 open_gop=0 weightp=2 keyint=250 keyint_min=25 scenecut=40 intra_refresh=0 rc_lookahead=40 rc=crf mbtree=1 crf=23.0 qcomp=0.60 qpmin=0 qpmax=69 qpstep=4 ip_ratio=1.40 aq=1:1.00\n",
      "Output #0, mp4, to 'Video.mp4':\n",
      "  Metadata:\n",
      "    major_brand     : isom\n",
      "    minor_version   : 512\n",
      "    compatible_brands: isomiso2avc1mp41\n",
      "    encoder         : Lavf57.71.100\n",
      "    Stream #0:0(und): Video: h264 (libx264) ([33][0][0][0] / 0x0021), yuvj420p(pc, progressive), 640x360 [SAR 1:1 DAR 16:9], q=-1--1, 25 fps, 12800 tbn, 25 tbc (default)\n",
      "    Metadata:\n",
      "      handler_name    : VideoHandler\n",
      "      encoder         : Lavc57.89.100 libx264\n",
      "    Side data:\n",
      "      cpb: bitrate max/min/avg: 0/0/0 buffer size: 0 vbv_delay: -1\n",
      "    Stream #0:1: Audio: aac (LC) ([64][0][0][0] / 0x0040), 16000 Hz, mono, fltp, 69 kb/s\n",
      "    Metadata:\n",
      "      encoder         : Lavc57.89.100 aac\n",
      "frame=  116 fps=0.0 q=28.0 size=     118kB time=00:00:02.68 bitrate= 360.6kbits/s speed=5.33x    \r",
      "frame=  245 fps=243 q=28.0 size=     170kB time=00:00:07.93 bitrate= 175.6kbits/s speed=7.88x    \r",
      "frame=  369 fps=245 q=28.0 size=     325kB time=00:00:12.92 bitrate= 206.2kbits/s speed=8.58x    \r",
      "frame=  492 fps=245 q=28.0 size=     375kB time=00:00:17.79 bitrate= 172.7kbits/s speed=8.85x    \r",
      "frame=  636 fps=253 q=28.0 size=     539kB time=00:00:23.55 bitrate= 187.6kbits/s speed=9.37x    \r",
      "frame=  721 fps=239 q=28.0 size=     573kB time=00:00:27.00 bitrate= 173.7kbits/s speed=8.96x    \r",
      "frame=  798 fps=227 q=28.0 size=     711kB time=00:00:30.08 bitrate= 193.7kbits/s speed=8.54x    \r",
      "frame=  898 fps=223 q=28.0 size=     751kB time=00:00:34.04 bitrate= 180.7kbits/s speed=8.47x    \r",
      "frame= 1005 fps=222 q=28.0 size=     902kB time=00:00:38.27 bitrate= 193.0kbits/s speed=8.46x    \r",
      "frame= 1100 fps=219 q=28.0 size=     941kB time=00:00:42.11 bitrate= 183.0kbits/s speed=8.38x    \r",
      "frame= 1201 fps=217 q=28.0 size=     982kB time=00:00:46.08 bitrate= 174.5kbits/s speed=8.33x    \r",
      "frame= 1337 fps=222 q=28.0 size=    1144kB time=00:00:51.58 bitrate= 181.7kbits/s speed=8.55x    \r",
      "frame= 1467 fps=224 q=28.0 size=    1195kB time=00:00:56.83 bitrate= 172.3kbits/s speed= 8.7x    \r",
      "frame= 1586 fps=225 q=28.0 size=    1351kB time=00:01:01.56 bitrate= 179.7kbits/s speed=8.74x    \r",
      "frame= 1710 fps=226 q=28.0 size=    1400kB time=00:01:06.56 bitrate= 172.4kbits/s speed=8.81x    \r",
      "frame= 1806 fps=224 q=28.0 size=    1644kB time=00:01:10.40 bitrate= 191.2kbits/s speed=8.74x    \r",
      "frame= 1924 fps=225 q=28.0 size=    1692kB time=00:01:15.13 bitrate= 184.5kbits/s speed=8.78x    \r",
      "frame= 2031 fps=224 q=28.0 size=    1836kB time=00:01:19.36 bitrate= 189.5kbits/s speed=8.76x    \r",
      "frame= 2128 fps=223 q=28.0 size=    1875kB time=00:01:23.20 bitrate= 184.7kbits/s speed= 8.7x    \r",
      "frame= 2185 fps=217 q=28.0 size=    1909kB time=00:01:36.64 bitrate= 161.8kbits/s speed= 9.6x    \r",
      "frame= 2185 fps=207 q=28.0 size=    2086kB time=00:01:54.94 bitrate= 148.7kbits/s speed=10.9x    \r",
      "frame= 2185 fps=200 q=-1.0 Lsize=    2344kB time=00:02:05.69 bitrate= 152.8kbits/s speed=11.5x    \n",
      "video:1076kB audio:1210kB subtitle:0kB other streams:0kB global headers:0kB muxing overhead: 2.518964%\n",
      "[libx264 @ 0x3c8ade0] frame I:10    Avg QP:19.33  size:105629\n",
      "[libx264 @ 0x3c8ade0] frame P:550   Avg QP:19.23  size:    30\n",
      "[libx264 @ 0x3c8ade0] frame B:1625  Avg QP:29.95  size:    17\n",
      "[libx264 @ 0x3c8ade0] consecutive B-frames:  0.8%  0.0%  0.1% 99.0%\n",
      "[libx264 @ 0x3c8ade0] mb I  I16..4:  0.4% 69.4% 30.3%\n",
      "[libx264 @ 0x3c8ade0] mb P  I16..4:  0.0%  0.0%  0.0%  P16..4:  0.3%  0.0%  0.0%  0.0%  0.0%    skip:99.7%\n",
      "[libx264 @ 0x3c8ade0] mb B  I16..4:  0.0%  0.0%  0.0%  B16..8:  0.0%  0.0%  0.0%  direct: 0.0%  skip:100.0%  L0: 0.0% L1:100.0% BI: 0.0%\n",
      "[libx264 @ 0x3c8ade0] 8x8 transform intra:69.4% inter:7.7%\n",
      "[libx264 @ 0x3c8ade0] coded y,uvDC,uvAC intra: 96.4% 99.4% 95.0% inter: 0.0% 0.0% 0.0%\n",
      "[libx264 @ 0x3c8ade0] i16 v,h,dc,p: 21% 15% 56%  9%\n",
      "[libx264 @ 0x3c8ade0] i8 v,h,dc,ddl,ddr,vr,hd,vl,hu: 16% 11% 13%  7% 10% 13%  8% 13% 10%\n",
      "[libx264 @ 0x3c8ade0] i4 v,h,dc,ddl,ddr,vr,hd,vl,hu: 18%  9%  8%  8% 12% 14% 10%  9% 10%\n",
      "[libx264 @ 0x3c8ade0] i8c dc,h,v,p: 52% 15% 20% 13%\n",
      "[libx264 @ 0x3c8ade0] Weighted P-Frames: Y:0.0% UV:0.0%\n",
      "[libx264 @ 0x3c8ade0] ref P L0: 37.0%  0.0% 10.9% 52.1%\n",
      "[libx264 @ 0x3c8ade0] ref B L1: 99.2%  0.8%\n",
      "[libx264 @ 0x3c8ade0] kb/s:100.79\n",
      "[aac @ 0x3c8d9c0] Qavg: 31519.756\n"
     ]
    }
   ],
   "source": [
    "%%bash\n",
    "\n",
    "\n",
    "#En este caso todo se genero a partir de 3 imagenes \n",
    "\n",
    "\n",
    "#Los archivos .txt nombrados 01.txt,02.txt,03.txt con el texto correspondientes a cada una de las imagenes\n",
    "\n",
    "\n",
    "#Generando  audio .wav a partir de archivos .txt \n",
    "\n",
    "#Generando archivos de texto con Festival \n",
    "\n",
    "text2wave Texto/01.txt  -o Audio/01.wav\n",
    "\n",
    "text2wave Texto/02.txt  -o Audio/02.wav\n",
    "\n",
    "text2wave Texto/03.txt  -o Audio/03.wav\n",
    "\n",
    "\n",
    "#Extrayendo duracion en segundos con sox y poblando archivo de Duracion,con imagen correspondiente.\n",
    "\n",
    "echo \"ffconcat version 1.0\" >> Duracion\n",
    "\n",
    "echo \"file  IMG/01.jpg\" >> Duracion # file 01.jpg \n",
    "\n",
    "d1=$(sox --info -D Audio/01.wav)\n",
    "\n",
    "echo 'duration' $d1>>Duracion \n",
    "\n",
    "echo \"file  IMG/02.jpg\" >> Duracion # file 02.jpg\n",
    "\n",
    "d2=$(sox --info -D Audio/02.wav)\n",
    "\n",
    "echo 'duration' $d2>>Duracion\n",
    "\n",
    "echo \"file  IMG/03.jpg\" >> Duracion # file 03.jpg\n",
    "\n",
    "d3=$(sox --info -D Audio/03.wav)\n",
    "\n",
    "echo 'duration' $d3>>Duracion\n",
    " \n",
    "#cat Duracion\n",
    "\n",
    "\n",
    "#-------------Generando video a partir de imagenes y archivo duracion--------- \n",
    "\n",
    "\n",
    "\n",
    "ffmpeg -i Duracion  -vf \"scale=trunc(iw/2)*2:trunc(ih/2)*2\"  Video1.mp4\n",
    "\n",
    "\n",
    "\n",
    "#--------------------Union de Audios con sox---------------------- \n",
    "\n",
    "sox Audio/01.wav Audio/02.wav Audio/03.wav Audio/long.wav\n",
    "\n",
    "\n",
    "#-------------------Union Video con Audio-------------------------\n",
    "\n",
    "ffmpeg -i Video1.mp4 -i Audio/long.wav  Video.mp4\n",
    "\n",
    "\n",
    "\n"
   ]
  },
  {
   "cell_type": "code",
   "execution_count": 18,
   "metadata": {},
   "outputs": [
    {
     "name": "stdout",
     "output_type": "stream",
     "text": [
      "\n"
     ]
    }
   ],
   "source": []
  },
  {
   "cell_type": "code",
   "execution_count": null,
   "metadata": {
    "collapsed": true
   },
   "outputs": [],
   "source": []
  }
 ],
 "metadata": {
  "kernelspec": {
   "display_name": "Python 2",
   "language": "python",
   "name": "python2"
  },
  "language_info": {
   "codemirror_mode": {
    "name": "ipython",
    "version": 2
   },
   "file_extension": ".py",
   "mimetype": "text/x-python",
   "name": "python",
   "nbconvert_exporter": "python",
   "pygments_lexer": "ipython2",
   "version": "2.7.12"
  }
 },
 "nbformat": 4,
 "nbformat_minor": 2
}
